<svg width="24" height="64" viewBox="0 0 24 64" fill="none" xmlns="http://www.w3.org/2000/svg">
<path d="M16.9175 50.3737L17.6258 44.1033C18.9242 44.4489 20.051 45.016 21.006 45.8046C21.9504 46.5931 22.6854 47.603 23.2113 48.8344C23.7371 50.055 24 51.6105 24 53.5008C24 55.3262 23.8337 56.8493 23.501 58.0699C23.1576 59.2797 22.6103 60.322 21.8592 61.197C21.0972 62.0719 20.2066 62.7578 19.1871 63.2547C18.1677 63.7516 16.8156 64 15.1308 64C13.3709 64 11.9061 63.6976 10.7364 63.0927C9.87793 62.6498 9.11066 62.0449 8.43461 61.278C7.74782 60.5111 7.23809 59.7225 6.90543 58.9124C6.37961 57.627 6.1167 55.9797 6.1167 53.9706C6.1167 51.1622 6.61569 49.0235 7.61368 47.5544C8.61167 46.0746 10.0711 45.0376 11.992 44.4435L12.8129 50.6491C12.0832 50.8435 11.5359 51.2 11.171 51.7185C10.7954 52.2262 10.6076 52.9121 10.6076 53.7762C10.6076 54.8672 10.9993 55.7529 11.7827 56.4334C12.5553 57.1031 13.7304 57.438 15.3078 57.438C16.7136 57.438 17.7814 57.1031 18.5111 56.4334C19.2408 55.7637 19.6056 54.9104 19.6056 53.8734C19.6056 53.0093 19.3856 52.2856 18.9457 51.7023C18.5057 51.1082 17.8296 50.6653 16.9175 50.3737Z" fill="black"/>
<path d="M0 40.8466L0 34.2359H23.5976L23.5976 40.8466H0Z" fill="black"/>
<path d="M0 29.7965L0 23.1858H23.5976V29.7965H0Z" fill="black"/>
<path d="M0 18.9408L0 12.2815H8.17706C7.49027 11.6226 6.97518 10.8773 6.63179 10.0456C6.2884 9.20304 6.1167 8.27409 6.1167 7.25873C6.1167 5.1632 6.86787 3.42953 8.37022 2.05772C9.86184 0.685905 12.008 0 14.8089 0C16.6761 0 18.3233 0.313248 19.7505 0.939747C21.167 1.56624 22.2294 2.43578 22.9376 3.54835C23.6351 4.65012 23.9839 5.87612 23.9839 7.22633C23.9839 8.38211 23.7371 9.44067 23.2435 10.402C22.8571 11.1257 22.1328 11.9143 21.0704 12.7676H23.5976V18.9408H0ZM15.002 12.3301C16.4722 12.3301 17.5399 12.0547 18.2052 11.5038C18.8598 10.9421 19.1871 10.2346 19.1871 9.38126C19.1871 8.59274 18.8652 7.93384 18.2213 7.40456C17.5667 6.86447 16.4722 6.59443 14.9376 6.59443C13.5855 6.59443 12.5929 6.85907 11.9598 7.38835C11.3266 7.90683 11.0101 8.53873 11.0101 9.28405C11.0101 10.1806 11.3427 10.9151 12.008 11.4876C12.6626 12.0493 13.6606 12.3301 15.002 12.3301Z" fill="black"/>
</svg>
